<?xml version="1.0" encoding="utf-8"?>
<!-- Generator: Adobe Illustrator 16.0.0, SVG Export Plug-In . SVG Version: 6.00 Build 0)  -->
<!DOCTYPE svg PUBLIC "-//W3C//DTD SVG 1.1//EN" "http://www.w3.org/Graphics/SVG/1.1/DTD/svg11.dtd">
<svg version="1.1" id="图形" xmlns="http://www.w3.org/2000/svg" xmlns:xlink="http://www.w3.org/1999/xlink" x="0px" y="0px"
	 width="1000.637px" height="1000.678px" viewBox="15.167 -16.333 1000.637 1000.678"
	 enable-background="new 15.167 -16.333 1000.637 1000.678" xml:space="preserve">
<path fill="#757575" d="M933.345,593.716c0-83.338-26.394-137.159-26.394-137.159s8.718,0,18.853-0.471
	c-9.338-54.807-25.23-61.745-69.301-60.095c-12.579-12.571-111.766-165.784-292.758-165.784
	c-84.221,0-210.847,34.046-260.809,166.962c-200.788,0-195.441,173.024-199.197,192.981c-34.437-0.28-23.154,46.015-23.154,46.015
	l83.19-0.412c0,0,2.46,97.889,108.981,97.979c89.597,0.059,114.106-70.318,115.992-95.46c21.991,0.633,262.032,0.222,262.032,0.222
	s10.164,96.122,120.189,96.122c114.639,0,118.099-112.942,118.099-112.942s47.134,0,61.245,0
	C951.726,601.964,947.014,593.716,933.345,593.716z M274.996,710.563c-47.664,0-86.313-38.636-86.313-86.313
	s38.649-86.313,86.313-86.313c47.664,0,86.313,38.636,86.313,86.313S322.66,710.563,274.996,710.563z M766.199,710.563
	c-47.663,0-86.313-38.636-86.313-86.313s38.649-86.313,86.313-86.313c47.664,0,86.313,38.636,86.313,86.313
	S813.863,710.563,766.199,710.563z M882.087,573.242c0,0-23.581-73.558-120.793-73.071c-96.373,0.471-113.931,105.3-113.931,105.3
	l-24.538,0.382l0.25-196.893l134.669,0.258c0,0-41.448-120.809-193.115-120.809c-148.277,0-188.709,118.157-188.709,118.157
	l215.164,0.884v18.521l-42.715-0.044v31.108l42.715-0.206L590.2,605.853c0,0-178.532-0.148-199.565,0.368
	c0-34.04-33.303-102.441-118.776-102.441c-87.875,0-114.357,73.586-114.357,73.586l-27.042-0.059c0,0-7.659-72.614,47.708-118.201
	c59.963-49.38,120.161-39.305,149.251-42.833c32.404-109.555,139.323-155.061,231.042-156.084
	c79.361-0.884,161.873,17.21,245.594,116.264c103.325,122.26,99.01,196.79,99.01,196.79H882.087z"/>
</svg>
